<?xml version="1.0" encoding="UTF-8" standalone="no"?>
<svg
   xmlns:dc="http://purl.org/dc/elements/1.1/"
   xmlns:cc="http://creativecommons.org/ns#"
   xmlns:rdf="http://www.w3.org/1999/02/22-rdf-syntax-ns#"
   xmlns:svg="http://www.w3.org/2000/svg"
   xmlns="http://www.w3.org/2000/svg"
   xmlns:sodipodi="http://sodipodi.sourceforge.net/DTD/sodipodi-0.dtd"
   xmlns:inkscape="http://www.inkscape.org/namespaces/inkscape"
   version="1.1"
   id="svg1802"
   width="417"
   height="243"
   viewBox="0 0 417 243"
   sodipodi:docname="Logo_v.0.1.svg"
   inkscape:version="1.0.1 (3bc2e813f5, 2020-09-07)">
  <metadata
     id="metadata1808">
    <rdf:RDF>
      <cc:Work
         rdf:about="">
        <dc:format>image/svg+xml</dc:format>
        <dc:type
           rdf:resource="http://purl.org/dc/dcmitype/StillImage" />
        <dc:title></dc:title>
      </cc:Work>
    </rdf:RDF>
  </metadata>
  <defs
     id="defs1806">
    <marker
       style="overflow:visible;"
       id="Arrow1Mend"
       refX="0.0"
       refY="0.0"
       orient="auto"
       inkscape:stockid="Arrow1Mend"
       inkscape:isstock="true">
      <path
         transform="scale(0.4) rotate(180) translate(10,0)"
         style="fill-rule:evenodd;stroke:#000000;stroke-width:1.0pt;"
         d="M 0.0,0.0 L 5.0,-5.0 L -12.5,0.0 L 5.0,5.0 L 0.0,0.0 z "
         id="path2905" />
    </marker>
    <filter
       inkscape:collect="always"
       style="color-interpolation-filters:sRGB"
       id="filter3196"
       x="-0.017178677"
       width="1.0343574"
       y="-0.016584254"
       height="1.0331685">
      <feGaussianBlur
         inkscape:collect="always"
         stdDeviation="1.5184834"
         id="feGaussianBlur3198" />
    </filter>
  </defs>
  <sodipodi:namedview
     pagecolor="#ffffff"
     bordercolor="#666666"
     borderopacity="1"
     objecttolerance="10"
     gridtolerance="10"
     guidetolerance="10"
     inkscape:pageopacity="0"
     inkscape:pageshadow="2"
     inkscape:window-width="1920"
     inkscape:window-height="1017"
     id="namedview1804"
     showgrid="false"
     inkscape:object-nodes="true"
     inkscape:snap-smooth-nodes="true"
     inkscape:zoom="2.6354916"
     inkscape:cx="167.04781"
     inkscape:cy="93.660236"
     inkscape:window-x="-8"
     inkscape:window-y="-8"
     inkscape:window-maximized="1"
     inkscape:current-layer="g1810" />
  <g
     inkscape:groupmode="layer"
     inkscape:label="Image"
     id="g1810">
    <path
       id="path1814"
       style="fill:#000000;stroke-width:1;paint-order:normal"
       d="m 209.20386,21.27959 c -5.75339,0 -8.51815,2.885374 -14.20703,14.828125 -2.79593,5.869554 -5.79771,11.469816 -6.66992,12.445312 -1.86809,2.089256 -1.25564,2.896324 4.29688,5.666016 7.26544,3.624132 7.57968,3.39281 15.47265,-11.439453 8.91833,-16.759171 8.30207,-15.013623 6.52344,-18.453125 -1.34097,-2.593141 -2.14823,-3.046875 -5.41602,-3.046875 z m 17.29688,6 c -5.68396,0 -9.60537,4.010665 -15.25781,15.603515 -2.173,4.456698 -5.39707,9.749218 -7.16407,11.761719 l -3.21289,3.660156 3.14649,1.095704 c 2.11241,0.736388 3.61127,2.21169 4.5625,4.488281 1.59853,3.825853 4.04937,4.444834 5.05469,1.277343 0.36884,-1.162112 3.81373,-6.767688 7.65429,-12.458984 7.77622,-11.523536 9.97259,-17.171055 8.62696,-22.177734 -0.69428,-2.583168 -1.39359,-3.250002 -3.41016,-3.25 z m 8.16992,1.949219 c -0.83673,-0.04781 -1.50405,0.702368 -1.06054,2.099609 0.37925,1.19494 9e-5,3.042423 -0.91016,4.431641 -0.85844,1.310151 -2.42699,4.663252 -3.48633,7.451171 -2.7295,7.18351 -0.48964,6.495616 4.13086,-1.267578 3.75773,-6.313594 4.27377,-8.134169 3.14258,-11.082031 -0.41279,-1.075723 -1.16561,-1.59563 -1.81641,-1.632812 z m -11.0664,24.050781 c -0.85618,0 -2.70496,2.658781 -4.34766,6.25 -3.38123,7.391896 -6.14235,10.208932 -9.08984,9.273437 -1.49406,-0.474198 -2.07227,-0.22023 -2.07227,0.910157 0,2.31931 5.19454,1.98811 8.40234,-0.535157 2.47792,-1.949133 8.59766,-12.532795 8.59766,-14.86914 0,-0.565684 -0.67071,-1.029297 -1.49023,-1.029297 z m 5.60156,0 c -0.76786,0 -5.11133,8.064377 -5.11133,9.490234 0,0.280994 0.90905,0.509766 2.01953,0.509766 1.6523,0 1.90609,-0.451979 1.39453,-2.490235 -0.44502,-1.773111 -0.16289,-2.668678 0.98047,-3.107421 1.66836,-0.640206 2.28099,-4.402344 0.7168,-4.402344 z m -40.92969,1.154297 c -0.80217,-0.06891 -1.19541,0.440595 -1.57422,1.427734 -1.27923,3.333641 -0.69565,4.385522 2.14258,3.857422 1.79454,-0.333905 3.79232,0.192818 5.75,1.517578 3.07129,2.078332 9.12784,2.86786 8,1.042969 -0.33993,-0.55 -1.21646,-1 -1.94727,-1 -0.73084,0 -3.61755,-1.575 -6.41601,-3.5 -3.21683,-2.212793 -4.92372,-3.257104 -5.95508,-3.345703 z m -16.79297,8.314453 c -0.34707,-0.03191 -0.62962,0.112411 -0.82812,0.433594 -0.9209,1.490054 2.79108,3.097656 7.15039,3.097656 3.05319,0 4.40772,0.642375 6.58789,3.126953 2.48563,2.832666 3.0955,3.055712 6.47265,2.359375 2.05066,-0.422828 5.50147,-0.709629 7.66797,-0.636719 4.43691,0.149325 8.56055,-2.052996 8.56055,-4.572265 0,-1.304292 -0.2659,-1.409896 -1.19922,-0.476563 -1.72144,1.721432 -8.37602,1.481412 -10.22656,-0.369141 -1.42624,-1.426247 -1.65915,-1.334867 -2.54688,1 -0.74849,1.968679 -1.67643,2.568361 -3.96679,2.56836 -3.02569,0 -5.2066,-2.340846 -4.36328,-4.683594 0.3107,-0.863174 -1.07671,-1.028344 -5.11719,-0.611328 -3.59895,0.371443 -6.04435,0.1552 -6.97266,-0.615234 -0.45993,-0.38171 -0.87167,-0.589189 -1.21875,-0.621094 z m 58.49805,2.992187 c -2.22919,0.0091 -5.48649,1.01705 -6.18555,2.19336 -0.43982,0.740114 -1.45234,1.345703 -2.25,1.345703 -2.28338,0 -1.69279,2.964394 0.79883,4.007812 1.23749,0.518226 3.54375,0.727749 5.125,0.466797 1.58125,-0.260952 3.7071,-0.474609 4.72461,-0.474609 1.5502,0 1.74855,-0.526666 1.21875,-3.25 -0.34773,-1.7875 -1.10262,-3.557164 -1.67773,-3.933594 -0.3816,-0.249763 -1.01085,-0.35849 -1.75391,-0.355469 z m -49.48828,3.076172 c -0.24931,-0.01199 -0.36785,0.162862 -0.35742,0.525391 0.0227,0.7904 1.93526,2.663298 4.25,4.162109 4.78867,3.100678 8.82378,3.518003 11.18554,1.15625 2.25481,-2.254814 1.26108,-2.778835 -2.75586,-1.453125 -4.00576,1.322021 -6.21181,0.71081 -9.9707,-2.761719 -1.15622,-1.068137 -1.93604,-1.608921 -2.35156,-1.628906 z m 24.45703,3.064453 c -0.69563,-0.0022 -1.33138,0.118367 -1.84375,0.392578 -1.1064,0.592123 -2.01172,1.532242 -2.01172,2.087891 0,0.555649 -1.10509,2.114844 -2.45508,3.464844 -2.74908,2.749074 -1.80322,3.035444 3.6875,1.123047 4.32782,-1.507357 5.82219,-2.669922 3.4336,-2.669922 -0.91667,0 -1.66602,-0.449999 -1.66602,-1 0,-1.29551 2.69619,-1.299134 3.49609,-0.0059 0.33809,0.547042 1.49118,1.464802 2.56055,2.03711 1.61215,0.862794 1.94336,0.712161 1.94336,-0.88086 0,-2.214677 -4.13015,-4.539449 -7.14453,-4.548828 z M 164.9148,75.71709 c -10.0443,-0.249736 -16.65475,4.74931 -22.02344,16.123047 -3.00881,6.374302 -3.29295,7.834612 -3.5,17.939453 -0.28801,14.05742 -0.33828,14.49318 -1.29687,11.5 -0.44035,-1.375 -0.84559,-5.7625 -0.90039,-9.75 -0.078,-5.67658 -0.41986,-7.25 -1.57422,-7.25 -3.15423,0 -4.52683,5.41242 -4.49023,17.70117 0.0387,13.01437 1.52949,21.70994 4.76367,27.79883 3.88117,7.30694 3.94911,7.3467 5.6543,3.26563 1.96268,-4.69734 1.98329,-12.47481 0.0469,-17.11133 -0.825,-1.9745 -1.5,-3.8398 -1.5,-4.14648 0,-0.30668 2.5875,2.07682 5.75,5.29687 4.23503,4.31209 8.34675,7.1488 15.60742,10.76758 12.06615,6.01386 14.37498,8.69378 20.18945,23.4375 2.36753,6.00326 5.67729,12.90746 7.35352,15.34375 6.3847,9.27985 16.36967,15.90753 29.42383,19.52734 7.54119,2.09111 13.38832,5.34194 19.85547,11.04102 2.57341,2.26779 5.94841,4.81148 7.5,5.65234 4.08943,2.21629 11.69175,1.36237 14.95117,-1.67969 3.59972,-3.35964 6.07184,-8.59623 6.80859,-14.41796 l 0.63086,-4.97657 -3.19726,6 -3.19532,6 -0.84179,-3 c -1.06824,-3.81034 -0.24746,-7.70611 2.30664,-10.95312 2.55828,-3.25229 0.89134,-3.28755 -2.94141,-0.0625 l -2.95117,2.48437 0.39453,-4.73437 c 0.3401,-4.07367 0.2453,-4.38565 -0.68164,-2.23438 -1.72851,4.01153 -6.05374,7.98136 -11.96289,10.98047 -6.4412,3.26911 -13,5.26185 -13,3.94922 0,-0.50032 2.025,-3.86731 4.5,-7.48242 4.75651,-6.94759 5.44807,-8.748 3,-7.80859 -0.825,0.31659 -1.5,0.0776 -1.5,-0.53125 0,-0.60885 0.34208,-1.10743 0.75977,-1.10743 1.0452,0 3.50317,-4.0691 2.85156,-4.7207 -0.28989,-0.28988 -1.95029,0.6694 -3.68946,2.13281 -1.73916,1.46341 -4.56944,3.37047 -6.29101,4.23828 l -3.13086,1.57813 3.64063,-3.86328 c 4.09838,-4.35098 6.28314,-8.33739 7.1914,-13.11524 0.69695,-3.66629 -0.23795,-4.23024 -2.0918,-1.26171 -1.29805,2.07848 -12.78144,8.25119 -17.4414,9.375 l -2.70313,0.65039 1.45313,-3.47461 c 0.79853,-1.91118 1.45117,-6.54357 1.45117,-10.29493 0,-4.69667 0.58486,-7.96761 1.87695,-10.50195 1.62042,-3.17841 1.65453,-3.55752 0.25,-2.78711 -0.89455,0.49066 -3.65195,2.98741 -6.12695,5.54883 -4.9771,5.1509 -8.76517,7.49609 -12.10547,7.49609 -2.17282,0 -2.17627,-0.0304 -0.3125,-2.08984 l 1.89063,-2.08984 -3.73633,0.70117 c -2.05485,0.38549 -3.73633,0.48797 -3.73633,0.22656 0,-0.26141 1.76329,-1.69822 3.91797,-3.19141 2.6298,-1.82245 5.12641,-5.01362 7.59375,-9.70898 2.02157,-3.84704 3.4945,-7.17542 3.27344,-7.39648 -0.22105,-0.22106 -2.05494,1.57452 -4.07422,3.99023 -3.41604,4.08666 -10.51579,8.37437 -16.71094,10.0918 -2.12153,0.58813 -1.89075,0.16446 1.52539,-2.80469 3.83975,-3.33732 9.45468,-13.08243 8.23828,-14.29883 -0.31716,-0.31715 -1.96882,0.14376 -3.66992,1.02344 -3.65826,1.89177 -3.85883,1.03361 -1.09375,-4.68945 2.53665,-5.25024 2.5223,-5.33542 -0.58594,-3.29883 -1.42271,0.9322 -2.81062,1.47257 -3.08398,1.19922 -0.27334,-0.27335 1.13,-3.04284 3.11914,-6.15235 3.69695,-5.77928 8.11489,-8.67297 15.48242,-10.14648 4.45423,-0.89084 4.82531,-2.36524 0.5957,-2.36524 -5.04709,0 -9.67483,2.17478 -14.91797,7.00782 -3.12722,2.88258 -5.081,3.97729 -6.36328,3.57031 -1.01755,-0.32295 -4.70901,-3.00543 -8.20312,-5.96289 -6.07018,-5.13786 -17.18771,-10.6488 -24.54297,-12.16407 -5.63464,-1.1608 -5.74462,-1.27211 -3.55078,-3.62695 2.78776,-2.9923 2.58751,-4.71602 -1.06445,-9.14648 -4.11137,-4.987801 -3.11292,-5.702321 1.66796,-1.19336 4.12261,3.88811 3.97953,3.94033 7.48633,-2.693361 2.17674,-4.117666 2.52726,-8.865079 0.88086,-11.94141 -0.59456,-1.110948 -0.78097,-2.320153 -0.41406,-2.685547 0.96314,-0.959176 4.49414,3.713937 4.49414,5.947266 0,2.358757 0.74322,2.358002 6.27148,-0.01172 3.87147,-1.659502 4.5736,-2.447379 5.52344,-6.189453 0.59866,-2.358413 0.8807,-4.624587 0.62695,-5.035156 -0.25371,-0.41057 -3.8856,-1.508011 -8.07226,-2.439453 -2.71065,-0.603061 -5.21138,-0.940415 -7.5293,-0.998047 z m 21.61719,2.201172 c -0.6392,0.04454 -0.45574,0.635155 0.50195,1.789062 0.75076,0.904637 0.93466,2.36713 0.47266,3.775391 -0.41462,1.263894 -0.67513,3.471497 -0.57813,4.90625 0.097,1.434752 -0.71803,3.743911 -1.81054,5.132812 -1.85345,2.356275 -1.88216,2.734917 -0.43164,5.642582 1.9887,3.986441 1.47454,6.635751 -1.27149,6.546871 -1.44362,-0.0467 -1.9437,0.38908 -1.56836,1.36719 0.44803,1.16755 0.16212,1.22671 -1.53515,0.31836 -3.82876,-2.04909 -4.28348,-1.15079 -0.98243,1.93945 l 3.26563,3.0586 -3.25,-1.58399 c -3.77609,-1.83886 -4.22032,-1.1611 -1,1.52539 2.47305,2.0631 0.89959,2.62937 -2.40039,0.86328 -3.21794,-1.72219 -3.33891,-0.26024 -0.21484,2.60547 l 2.86523,2.62891 -3.5,-0.57422 -3.5,-0.57422 4,2.40234 c 4.79643,2.88134 5.61907,3.06647 4.86133,1.0918 -0.35355,-0.92131 0.001,-1.5 0.91992,-1.5 0.91765,0 1.74949,-1.35269 2.15234,-3.5 0.36112,-1.925 0.97376,-3.50351 1.36133,-3.50781 1.06846,-0.0118 3.20508,-5.09606 3.20508,-7.62695 0,-1.22955 -0.44502,-3.40777 -0.99023,-4.841801 -0.82367,-2.16641 -0.4009,-3.780605 2.5,-9.541017 1.92021,-3.813043 3.49023,-7.617928 3.49023,-8.455078 0,-0.837154 -1.4625,-2.132561 -3.25,-2.88086 -1.39731,-0.584957 -2.38805,-0.9178 -2.98828,-0.99414 -0.12505,-0.01591 -0.2329,-0.02004 -0.32422,-0.01367 z m 10.14063,7.011718 c -3.80039,-0.297699 -10.10475,15.39643 -6.9043,17.1875 1.98372,1.11015 1.92709,8.34411 -0.10938,14.03906 -2.27004,6.34796 -1.97873,6.29931 2.30274,-0.37695 2.11629,-3.3 5.11635,-7.125 6.66601,-8.5 l 2.81641,-2.5 -2.02344,3.5 c -5.8218,10.06956 -9.33487,17 -8.61914,17 0.44211,0 4.03227,-2.42777 7.97852,-5.39648 8.95701,-6.73823 9.31445,-6.95586 9.31445,-5.66407 0,0.58088 -1.68749,2.93929 -3.75,5.24219 -2.66246,2.97279 -3.16997,3.96787 -1.75,3.43164 7.86603,-2.97044 16.71532,-2.21219 20.2832,1.73828 2.60002,2.87883 4.20415,7.95527 4.28125,13.54883 0.0574,4.16885 0.1618,4.36491 1.1211,2.09961 0.99458,-2.34861 1.35068,-1.89443 5.88672,7.5 2.71316,5.61908 5.38537,12.94296 6.0996,16.7168 l 1.27149,6.7168 2.13672,-2.00781 2.13672,-2.00782 0.64257,4.68164 c 0.3529,2.57448 0.65187,6.98029 0.66407,9.79102 l 0.0215,5.10937 1.98047,-2.5 c 1.08941,-1.375 2.26942,-3.57282 2.62109,-4.88476 l 0.63868,-2.38477 1.19531,2.23242 c 1.18848,2.22069 1.20263,2.21697 2.47851,-0.86328 0.70589,-1.70416 1.6465,-3.09961 2.08985,-3.09961 1.87179,0 5.11397,5.44669 7.38476,12.4043 0.60234,1.84555 0.66356,1.84804 1.97266,0.0566 1.16995,-1.60001 1.4464,-0.11352 2.07227,11.13867 0.60881,10.94582 0.46169,13.60776 -0.92969,16.94336 -2.14317,5.13783 -7.08834,10.19687 -10.75391,11.00196 -3.33202,0.73184 -3.21717,2.40444 0.28516,4.1914 3.30266,1.68508 3.39826,1.66135 7.23242,-1.70508 9.83539,-8.63593 16.27406,-44.87569 9.82617,-55.30859 -2.50706,-4.05652 -4.02288,-4.87176 -9.83594,-5.29883 -5.86052,-0.43055 -9.06701,-2.83156 -10.39648,-7.7832 -0.6516,-2.42688 -2.86893,-6.02162 -5.35742,-8.68555 -3.75761,-4.02253 -4.91458,-6.55369 -10.0625,-22 -3.19946,-9.59992 -6.87581,-19.84529 -8.16797,-22.76758 -3.61671,-8.179471 -9.80578,-15.765512 -14.3457,-17.582032 -3.88039,-1.552621 -16.69055,-4.664911 -20.39453,-4.955078 z m -19.11329,6.691407 c -0.29886,0.0021 -0.79905,0.356079 -1.44531,1.134765 -0.69572,0.838291 -2.75115,1.523438 -4.56836,1.523438 -3.03369,0 -3.5308,0.470422 -6.08008,5.75 -1.52703,3.1625 -3.09933,5.97926 -3.49414,6.25977 -0.39482,0.28051 -1.028,1.74301 -1.40625,3.25 -0.37821,1.50699 -1.08774,2.74023 -1.57812,2.74023 -0.49037,0 -0.89258,0.45 -0.89258,1 0,2.1958 2.83214,0.82101 3.9707,-1.92773 0.66708,-1.61048 1.82212,-3.16165 2.56641,-3.44727 0.7443,-0.28561 1.65297,-2.11836 2.01953,-4.07226 0.55342,-2.95001 1.09254,-3.55274 3.17773,-3.55274 1.98736,0 2.27794,-0.279711 1.39649,-1.341801 -1.39516,-1.681068 -0.47654,-2.658199 2.5,-2.658199 1.30616,0 2.78165,-0.900563 3.41601,-2.085938 0.85857,-1.604251 0.91606,-2.575827 0.41797,-2.572265 z m -26.14257,26.671873 c 6.15078,0.0201 8.14132,0.80978 10.0039,3.96289 2.08104,3.52292 2.13126,7.23974 0.14844,11.07423 -1.85892,3.59474 -3.47461,3.81747 -3.47461,0.48046 0,-1.74222 -0.42504,-2.30558 -1.44531,-1.91406 -1.21433,0.46598 -1.26131,0.0681 -0.29492,-2.49219 1.54125,-4.08323 0.26503,-5.06159 -2.31836,-1.77734 -2.5948,3.29876 -4.17182,3.42092 -3.37891,0.26172 0.67865,-2.70396 -1.13519,-4.43708 -2.84961,-2.72266 -1.8842,1.8842 -3.71289,1.23743 -3.71289,-1.31445 0,-3.63252 2.55755,-5.5742 7.32227,-5.5586 z m -5.15821,24.06251 c -0.39815,0.11702 0.30968,2.1866 1.82617,4.67382 1.53023,2.50977 2.66804,3.25 4.9961,3.25 1.65809,0 3.01367,-0.45 3.01367,-1 0,-0.55 -0.70113,-1 -1.55859,-1 -0.85748,0 -1.28133,-0.45 -0.94141,-1 0.33992,-0.55 -0.0839,-1 -0.94141,-1 -0.85746,0 -1.55859,-0.4862 -1.55859,-1.08203 0,-0.59583 -0.5625,-0.89372 -1.25,-0.66211 -0.6875,0.2316 -1.79874,-0.2947 -2.46875,-1.16797 -0.49234,-0.6417 -0.82893,-0.95447 -1.02344,-1.00781 -0.0365,-0.01 -0.0678,-0.01 -0.0937,-0.004 z m -0.45703,6.19921 c -0.30892,0.0627 -0.6541,0.64648 -1.29687,1.80664 -0.73677,1.32981 -1.3555,2.71347 -1.375,3.07422 -0.0195,0.36076 1.05087,0.14339 2.37695,-0.48242 1.99165,-0.93991 2.23084,-1.47311 1.375,-3.07226 -0.49714,-0.92891 -0.77115,-1.38885 -1.08008,-1.32618 z m 10.22461,2.72461 c -2.06642,0 -2.09158,0.10732 -0.54687,2.46485 2.31783,3.53746 2.10447,4.20721 -2.75196,8.62695 l -4.36718,3.97461 3.39062,3.39062 c 2.89399,2.89403 4.02096,3.36516 7.70312,3.22266 3.2248,-0.12481 5.30019,0.50887 8.22657,2.51563 4.92238,3.3755 5.97027,3.41319 8.02343,0.27929 4.2822,-6.53544 -3.99721,-24.45805 -10.19921,-22.07812 -1.34446,0.51591 -1.10168,1.19029 1.49218,4.14453 3.55452,4.04838 4.09382,7.45898 1.17969,7.45898 -1.05502,0 -2.65664,0.2828 -3.55859,0.62891 -1.26481,0.48535 -1.59056,0.0851 -1.42578,-1.75 0.65968,-7.3468 -2.41804,-12.87891 -7.16602,-12.87891 z m -4.58203,1.39258 c -0.59551,0.0483 -0.66997,1.23809 -0.39063,3.92188 0.19543,1.87769 -2.77309,7.20541 -3.57031,6.4082 -0.24822,-0.24823 0.34315,-1.83249 1.3125,-3.52148 0.96939,-1.68899 1.42743,-3.40465 1.01953,-3.8125 -0.79264,-0.79265 -2.87107,1.49304 -5.17968,5.69531 -1.36905,2.49204 -1.32297,2.58398 1.29687,2.58398 1.91667,0 3.51725,-1.02997 5.43945,-3.49609 3.10555,-3.98432 3.34758,-5.40835 1.22266,-7.17188 -0.50109,-0.41585 -0.8797,-0.6294 -1.15039,-0.60742 z m -5.10742,0.63477 c -0.0545,-0.008 -0.11453,-0.007 -0.18164,0.002 -0.24781,0.0322 -0.57974,0.17385 -1,0.43359 -1.22032,0.75419 -3.45211,4.88753 -4.54102,8.41211 -1.10023,3.56123 0.86298,1.85647 3.97461,-3.45312 1.9708,-3.36291 2.56605,-5.28272 1.74805,-5.39453 z m -10.45508,8.5 c -0.40973,-0.0574 -0.30311,1.26138 -0.0137,4.76172 0.39565,4.77105 0.0696,6.30419 -2.15235,10.0957 -1.44114,2.45912 -2.62109,4.95341 -2.62109,5.54297 0,1.84512 0.58407,1.26102 5.92969,-5.92774 2.86288,-3.85 5.85094,-7 6.63867,-7 0.78774,0 1.43164,-0.18795 1.43164,-0.41797 0,-0.22998 0.30948,-1.22389 0.6875,-2.20898 0.61286,-1.59708 0.28794,-1.55516 -3,0.38477 -3.47658,2.05123 -3.6875,2.06976 -3.6875,0.32031 0,-1.02052 -0.83023,-2.88267 -1.8457,-4.13672 -0.68921,-0.85114 -1.12135,-1.37962 -1.36719,-1.41406 z"
       sodipodi:nodetypes="ssssssssscccsssssssscsssssssssssssssssssssssssssssssssssssssssssssssssssssssssssssscsssssssssscsscsssscsscscccccscccssssssssscccsscccssssscccssssssssssssssssssssssssssssssssssssssssscccsscccccssscsssssssssscscccsssssscsscccccccccccssscsssscssssssssssssssssssssssssssscsssssssscssssssssssccssssssssccssscsssssscssscsssscccsssccccssssssssscc" />
    <rect
       style="mix-blend-mode:normal;fill:#000000;fill-opacity:0;stroke:#000000;stroke-width:4.0128;stroke-linecap:round;stroke-linejoin:round;stroke-miterlimit:4;stroke-dasharray:none;stroke-dashoffset:0;stroke-opacity:1;paint-order:markers stroke fill"
       id="rect2892"
       width="223.58179"
       height="231.59554"
       x="94.24276"
       y="11.313259"
       ry="60.102642" />
    <rect
       style="opacity:1;mix-blend-mode:normal;fill:#f40000;fill-opacity:0;stroke:#30322e;stroke-width:4.59215686;stroke-linecap:round;stroke-linejoin:round;stroke-miterlimit:4;stroke-dasharray:none;stroke-dashoffset:0;stroke-opacity:1;paint-order:markers stroke fill;filter:url(#filter3196)"
       id="rect3174"
       width="212.14441"
       height="219.74821"
       x="99.961441"
       y="17.236916"
       ry="57.028084"
       transform="matrix(1.02,0,0,1.02,-4.120673,-2.5422203)" />
    <rect
       style="mix-blend-mode:normal;fill:#000000;fill-opacity:0;stroke:#000000;stroke-width:3.066;stroke-linecap:round;stroke-linejoin:round;stroke-miterlimit:4;stroke-dasharray:none;stroke-dashoffset:0;stroke-opacity:1;paint-order:markers stroke fill"
       id="rect3190"
       width="208.15465"
       height="215.61545"
       x="101.95633"
       y="19.303305"
       ry="55.955563" />
  </g>
</svg>
